<?xml version="1.0" encoding="UTF-8"?>
<svg id="Calque_1" xmlns="http://www.w3.org/2000/svg" version="1.1" viewBox="0 0 392.17 392.17">
  <!-- Generator: Adobe Illustrator 29.5.1, SVG Export Plug-In . SVG Version: 2.1.0 Build 141)  -->
  <defs>
    <style>
      .st0 {
        fill: #fff;
      }
    </style>
  </defs>
  <path d="M360.83,392.17h-7.64l-11.1-6.1-146.65-145.98L49.33,386.07l-11.1,6.1h-7.64c-1.71-1.26-3.89-1.18-5.87-2.16-4.15-2.05-20.51-18.41-22.55-22.55C1.18,365.48,1.26,363.3,0,361.59v-7.64l6.1-11.1,145.98-146.65L6.1,50.09,0,38.99v-7.64c1.26-1.71,1.18-3.89,2.16-5.87,1.94-3.92,18.17-20.29,22.06-22.28,8.68-4.43,17.94-2.57,25.11,3.67l146.65,145.98L342.88,6.13c9.01-7.02,19.38-7.37,28.29-.04,12.57,10.35,28.29,25.76,15.52,42.31l-147.35,147.78,145.98,146.65c6.24,7.17,8.1,16.43,3.67,25.11-1.98,3.89-18.35,20.12-22.28,22.06-1.98.98-4.16.9-5.87,2.16Z"/>
  <polygon class="st0" points="0 353.95 0 38.99 6.1 50.09 152.07 196.19 6.1 342.84 0 353.95"/>
  <polygon class="st0" points="353.18 392.17 38.22 392.17 49.33 386.07 195.43 240.1 342.08 386.07 353.18 392.17"/>
  <path class="st0" d="M30.58,392.17H0v-30.58c1.26,1.71,1.18,3.89,2.16,5.87,2.05,4.14,18.4,20.5,22.55,22.55,1.98.98,4.16.9,5.87,2.16Z"/>
</svg>