<?xml version="1.0" encoding="UTF-8"?>
<svg id="Calque_1" xmlns="http://www.w3.org/2000/svg" version="1.1" viewBox="0 0 392.2 392.2">
  <!-- Generator: Adobe Illustrator 29.1.0, SVG Export Plug-In . SVG Version: 2.1.0 Build 142)  -->
  <defs>
    <style>
      .st0 {
        fill: #fff;
      }

      .st1 {
        fill: #02543d;
      }
    </style>
  </defs>
  <path class="st1" d="M360.8,392.2h-7.6l-11.1-6.1-146.6-146L49.3,386.1l-11.1,6.1h-7.6c-1.7-1.3-3.9-1.2-5.9-2.2-4.1-2-20.5-18.4-22.5-22.5-1-2-.9-4.2-2.2-5.9v-7.6l6.1-11.1,146-146.6L6.1,50.1,0,39v-7.6c1.3-1.7,1.2-3.9,2.2-5.9,1.9-3.9,18.2-20.3,22.1-22.3,8.7-4.4,17.9-2.6,25.1,3.7l146.6,146L342.9,6.1c9-7,19.4-7.4,28.3,0,12.6,10.4,28.3,25.8,15.5,42.3l-147.4,147.8,146,146.6c6.2,7.2,8.1,16.4,3.7,25.1-2,3.9-18.4,20.1-22.3,22.1-2,1-4.2.9-5.9,2.2h0Z"/>
  <path class="st0" d="M30.6,392.2H0v-30.6c1.3,1.7,1.2,3.9,2.2,5.9,2,4.1,18.4,20.5,22.5,22.5,2,1,4.2.9,5.9,2.2Z"/>
</svg>