<svg width="46" height="26" viewBox="0 0 46 26" fill="none" xmlns="http://www.w3.org/2000/svg">
<path d="M12.504 25.384C10.7973 25.384 9.21867 25.0747 7.768 24.456C6.33867 23.8373 5.08 22.9733 3.992 21.864C2.92533 20.7547 2.09333 19.4533 1.496 17.96C0.898667 16.4667 0.6 14.8347 0.6 13.064C0.6 11.2933 0.888 9.66133 1.464 8.168C2.06133 6.65333 2.89333 5.352 3.96 4.264C5.048 3.15467 6.31733 2.30133 7.768 1.704C9.21867 1.08533 10.7973 0.775999 12.504 0.775999C14.2107 0.775999 15.736 1.064 17.08 1.64C18.4453 2.216 19.5973 2.984 20.536 3.944C21.4747 4.88267 22.1467 5.91733 22.552 7.048L18.648 8.872C18.2 7.67733 17.4427 6.696 16.376 5.928C15.3093 5.13867 14.0187 4.744 12.504 4.744C11.0107 4.744 9.688 5.096 8.536 5.8C7.40533 6.504 6.52 7.47467 5.88 8.712C5.26133 9.94933 4.952 11.4 4.952 13.064C4.952 14.728 5.26133 16.1893 5.88 17.448C6.52 18.6853 7.40533 19.656 8.536 20.36C9.688 21.064 11.0107 21.416 12.504 21.416C14.0187 21.416 15.3093 21.032 16.376 20.264C17.4427 19.4747 18.2 18.4827 18.648 17.288L22.552 19.112C22.1467 20.2427 21.4747 21.288 20.536 22.248C19.5973 23.1867 18.4453 23.944 17.08 24.52C15.736 25.096 14.2107 25.384 12.504 25.384ZM32.4533 25L24.1333 1.16H28.8693L35.3973 20.904H34.4693L40.9973 1.16H45.7333L37.4453 25H32.4533Z" fill="black"/>
</svg>
