<svg width="95" height="95" viewBox="0 0 95 95" fill="none" xmlns="http://www.w3.org/2000/svg">
<g clip-path="url(#clip0_137_1444)">
<path d="M-0.00360107 32.932C-0.00360107 17.4066 -0.00360107 9.64337 4.8192 4.81938C9.64318 -0.00341797 17.4065 -0.00341797 32.9318 -0.00341797H62.0681C77.5935 -0.00341797 85.3567 -0.00341797 90.1807 4.81938C95.0035 9.64337 95.0035 17.4066 95.0035 32.932V62.0683C95.0035 77.5937 95.0035 85.3569 90.1807 90.1809C85.3567 95.0037 77.5935 95.0037 62.0681 95.0037H32.9318C17.4065 95.0037 9.64318 95.0037 4.8192 90.1809C-0.00360107 85.3569 -0.00360107 77.5937 -0.00360107 62.0683V32.932Z" fill="white"/>
<path d="M72.3372 19.2282L67.8089 69.8599L47.4727 75.6838H47.3076L27.1269 69.911L22.6081 19.2271L72.3372 19.2282ZM47.5273 29.5935C47.4905 29.5935 47.4537 29.5935 47.4169 29.5935C47.3147 29.5935 47.1829 29.5971 47.0606 29.5971C41.9967 29.5983 36.9316 29.59 31.8689 29.5935L31.8666 29.9545C32.3998 36.1003 32.933 42.2497 33.5292 48.3871C38.0385 48.4025 42.5501 48.3871 47.0606 48.3907C47.1972 48.3907 47.3242 48.4489 47.4169 48.4489C47.4537 48.4489 47.4905 48.4489 47.5273 48.4489V58.3177H47.4169L40.4801 56.4888L39.9457 51.482H33.8534L34.6348 61.3401L47.4157 64.8233H47.5261V71.2185L63.954 66.7508L67.8161 23.3088H47.5273V29.5935Z" fill="#E34F26"/>
<path d="M72.336 19.1738H22.6069V19.2285H72.336V19.1738Z" fill="#F5C4B6"/>
<path d="M47.5273 29.5938V23.3091H67.8161L63.954 66.7511L47.5273 71.2188V64.8236L60.1822 61.2977C60.2927 60.3155 60.3936 59.3287 60.4827 58.3453C60.915 53.5902 61.2131 48.8161 61.6964 44.0669C61.7142 43.8959 62.0016 42.1811 61.8852 42.1632C57.0993 42.1632 52.3121 42.168 47.5273 42.1632V35.7123C52.5247 35.7099 57.5256 35.7134 62.5242 35.7123L63.0764 29.6211C57.8961 29.5689 52.7099 29.5938 47.5285 29.5926L47.5273 29.5938Z" fill="#EF662B"/>
<path d="M47.4169 29.5939V35.7135C44.5144 35.7147 41.6084 35.7135 38.7059 35.7135L39.2059 41.9127L39.3116 42.1372C41.8934 42.1847 44.4776 42.1645 47.0606 42.1669C47.1817 42.1669 47.3135 42.1633 47.4169 42.1633V48.448C47.3242 48.448 47.1972 48.391 47.0606 48.3899C42.5501 48.3875 38.0385 48.4029 33.5292 48.3863C32.933 42.2488 32.401 36.0995 31.8666 29.9537L31.869 29.5927C36.9316 29.5891 41.9967 29.5974 47.0606 29.5963C47.1817 29.5963 47.3135 29.5927 47.4169 29.5927V29.5939Z" fill="#EBEBEA"/>
<path d="M47.5273 42.1632C52.3121 42.1667 57.0993 42.1608 61.8853 42.1632C62.0017 42.181 61.7143 43.8959 61.6964 44.0669C61.2131 48.8161 60.915 53.5913 60.4827 58.3453C60.3937 59.3286 60.2927 60.3155 60.1823 61.2976L47.5273 64.8236H47.4169V58.318H47.5273L54.3619 56.4962L55.1338 48.5263L55.0839 48.4194C52.6339 48.3766 50.1697 48.3921 47.715 48.3897C47.6128 48.3897 47.538 48.4491 47.5285 48.4491C47.4917 48.4491 47.4549 48.4491 47.4181 48.4491V42.1644C47.4549 42.1644 47.4917 42.1644 47.5285 42.1644L47.5273 42.1632Z" fill="white"/>
<path d="M47.4168 64.8235L34.636 61.3403L33.8546 51.481H39.9469L40.4801 56.4878L47.4168 58.3179V64.8235Z" fill="#EBEBEB"/>
<path d="M47.5273 29.5937C52.7087 29.5937 57.8949 29.5688 63.0752 29.6222L62.523 35.7133C57.5256 35.7133 52.5247 35.711 47.5261 35.7133C47.4893 35.7133 47.4525 35.7133 47.4156 35.7133V29.5937C47.4525 29.5937 47.4905 29.5937 47.5273 29.5937Z" fill="white"/>
<path d="M47.5273 48.4492C47.5368 48.4492 47.6116 48.3898 47.7138 48.3898C50.1697 48.3922 52.6328 48.3756 55.0828 48.4195L55.1326 48.5264L54.3607 56.4963L47.5261 58.3181L47.5273 48.4492Z" fill="#EF662C"/>
<path d="M47.4168 35.7134C47.4537 35.7134 47.4905 35.7134 47.5273 35.7134V42.1644C47.4905 42.1644 47.4537 42.1644 47.4168 42.1644C47.3135 42.1644 47.1829 42.1679 47.0606 42.1679C44.4776 42.1655 41.8934 42.1857 39.3115 42.1382L39.2058 41.9138L38.7059 35.7146C41.6083 35.7146 44.5144 35.7146 47.4168 35.7134Z" fill="#E35027"/>
</g>
<defs>
<clipPath id="clip0_137_1444">
<rect width="95" height="95" fill="white"/>
</clipPath>
</defs>
</svg>
