<?xml version="1.0" encoding="UTF-8"?>
<svg id="Calque_1" xmlns="http://www.w3.org/2000/svg" version="1.1" viewBox="0 0 800 800">
  <!-- Generator: Adobe Illustrator 29.1.0, SVG Export Plug-In . SVG Version: 2.1.0 Build 142)  -->
  <defs>
    <style>
      .st0, .st1 {
        fill-rule: evenodd;
      }

      .st1 {
        fill: #02543D;
      }
    </style>
  </defs>
  <path class="st0" d="M433.2,359.3v-1.2c-.2.4-.6.8-.8,1.2h.8Z"/>
  <path class="st1" d="M0,0v800h800V0H0ZM248.8,664.6h-118.7v-357.1h118.7v357.1ZM189.5,258.8h-.8c-39.8,0-65.6-27.4-65.6-61.7s26.6-61.7,67.2-61.7,65.6,26.7,66.4,61.7c0,34.3-25.7,61.7-67.2,61.7M676.9,664.6h-118.7v-191c0-48-17.2-80.7-60.1-80.7s-52.3,22.1-60.9,43.4c-3.1,7.6-3.9,18.2-3.9,28.9v199.4h-118.7s1.6-323.6,0-357.1h118.7v50.6c15.8-24.3,43.9-59,107-59s136.7,51,136.7,160.7v204.8Z"/>
</svg>