<?xml version="1.0" encoding="UTF-8"?>
<svg id="Calque_1" xmlns="http://www.w3.org/2000/svg" version="1.1" xmlns:xlink="http://www.w3.org/1999/xlink" viewBox="0 0 70 86">
  <!-- Generator: Adobe Illustrator 29.5.1, SVG Export Plug-In . SVG Version: 2.1.0 Build 141)  -->
  <defs>
    <style>
      .st0 {
        fill: none;
      }

      .st1 {
        clip-path: url(#clippath);
      }
    </style>
    <clipPath id="clippath">
      <rect class="st0" width="70" height="86"/>
    </clipPath>
  </defs>
  <g class="st1">
    <g>
      <path d="M5.44,22.17c.1-1.51,1.25-3.51,3.45-5.99,2.2-2.48,5.39-5.34,9.59-8.58,3.26-2.51,6.35-4.4,9.28-5.68,2.92-1.28,5.29-1.92,7.1-1.92.88,0,1.66.37,2.33,1.1.67.73,1.01,1.54,1.01,2.43.1.1.27.14.51.12s.48.04.74.19l1.09.94c.31.31.69.7,1.13,1.17.44.47.76.92.97,1.33h-.08c.21.42.35.75.43.98.08.23.12.48.12.75,0,.16-.01.34-.04.55-.02.21-.07.5-.12.86v-.08l-.16.86c-.1.31-.29.93-.54,1.84-.26.92-.55,1.95-.9,3.1-.34,1.15-.69,2.26-1.05,3.33-.36,1.07-.65,1.92-.85,2.55l-.93,2.9,2.64-.23c.16,0,.39-.01.7-.04.31-.02.63-.05.97-.08.33-.02.66-.04.97-.04h.62c.93,0,1.55.19,1.86.59.31.39.47.95.47,1.69,0,.31-.19.61-.58.9-.39.29-.89.58-1.52.86-.62.29-1.31.54-2.06.75-.75.21-1.49.37-2.21.47l-1.01.16c-.73.11-1.29.22-1.71.36-.42.13-.76.37-1.05.7-.29.34-.54.81-.78,1.41-.23.6-.53,1.42-.9,2.47v-.08c-.21.63-.47,1.39-.78,2.27-.31.89-.65,1.8-1.01,2.74-.36.94-.73,1.9-1.09,2.86-.36.97-.67,1.84-.93,2.63l-1.09,3.13c-1.19,3.03-2.34,5.8-3.45,8.3-1.12,2.51-2.25,4.66-3.41,6.46-1.16,1.8-2.42,3.21-3.76,4.23-1.35,1.02-2.82,1.53-4.43,1.53-2.33,0-4.43-.67-6.29-2-1.86-1.33-3.43-2.94-4.71-4.82-1.28-1.88-2.26-3.81-2.95-5.8-.69-1.99-1.03-3.63-1.03-4.94,0-1.88.53-3.71,1.58-5.49,1.06-1.78,2.49-3.5,4.32-5.17,1.83-1.67,3.99-3.29,6.49-4.86,2.5-1.57,5.2-3.05,8.1-4.47,1.4-.68,2.87-1.39,4.43-2.11l3.73-9.79,4.58-12.07c-.05,0-.09.01-.12.04-.03.03-.07.04-.12.04-1.92.99-4.03,2.3-6.32,3.92-2.3,1.62-4.46,3.34-6.48,5.17-2.02,1.83-3.7,3.66-5.05,5.49-1.35,1.83-2.02,3.42-2.02,4.78,0,.21.02.37.08.47l.31,1.8v.23c0,.63-.34.94-1.01.94-.57,0-1.25-.26-2.06-.78-.81-.52-1.62-1.23-2.45-2.11l-1.09-1.17c-.1-.1-.16-.26-.16-.47,0-.05.01-.09.04-.12.02-.02.04-.07.04-.12-.47-.05-.82-.28-1.05-.67-.23-.39-.35-1.29-.35-2.7h0ZM21.81,36.2l.31-.47c-.21.16-.47.31-.78.47-.31.16-.67.37-1.09.63-2.02,1.2-3.84,2.44-5.47,3.72-1.63,1.28-3.03,2.58-4.19,3.92-1.16,1.33-2.07,2.63-2.71,3.88-.65,1.25-.97,2.43-.97,3.52,0,.58.13,1.31.39,2.19.26.89.52,1.64.78,2.27l-.08-.08c.31.58.64,1.07,1.01,1.49s.67.63.93.63c.72-.94,1.41-1.84,2.06-2.7.64-.86,1.29-1.81,1.94-2.86.64-1.04,1.32-2.26,2.02-3.64.7-1.39,1.52-3.07,2.45-5.05.67-1.41,1.33-2.88,1.98-4.43.64-1.54,1.1-2.67,1.36-3.41l.08-.08h0Z"/>
      <path d="M38.5,24.92c1.96-.43,3.8-.76,5.83-1.03,6.32-.83,18.56-.87,23.75,3.23,2.29,1.8,1.92,5.86,1.87,7.05-.05,1.19-.3,2.54-.58,3.76-.29,1.23-.71,2.49-1.28,3.8h.08c-.88,2.14-2.23,4.22-4.04,6.23-1.81,2.01-3.81,3.85-5.98,5.52-2.17,1.67-4.43,3.15-6.75,4.43-2.33,1.28-4.47,2.29-6.44,3.02h.08c-1.4.68-2.15,1.1-2.25,1.25l-2.33,7.52-.08-.08-.23,1.72c-.21.89-.43,1.93-.66,3.14-.23,1.2-.43,2.4-.58,3.61-.16,1.2-.29,2.31-.39,3.33-.1,1.02-.16,1.73-.16,2.16l.08,1.72c-.1.47-.34.7-.7.7l-1.24-.08c-.52-.05-.96-.11-1.32-.16-.36-.05-.6-.18-.7-.39-.16.16-.31.23-.47.23-.42,0-.93-.18-1.55-.55-.62-.37-1.23-.85-1.83-1.45-.6-.6-1.13-1.28-1.59-2.04-.47-.76-.78-1.53-.93-2.31-.21-1.2-.29-2.64-.23-4.31.05-1.93.39-4.37,1.01-7.33.62-2.95,1.41-6.14,2.37-9.56.95-3.42,2.06-6.97,3.3-10.65,1.24-3.69,2.51-7.25,3.81-10.69.83-2.19,1.46-3.84,1.9-4.94.44-1.1.87-1.88,1.28-2.35l-3.03-4.52h0ZM51.62,28.26c-1.04,0-2.11.04-3.22.12-1.12.08-2.27.22-3.45.43l.23.39c0-.05.08-.08.23-.08.21,0,.49.12.85.36.36.23.75.48,1.16.75l.85.86c.62.68,1.18,1.44,1.67,2.27.49.84.74,1.7.74,2.58,0,1.05-.65,3.37-1.94,6.97-.62,1.62-1.13,2.97-1.52,4.08-.39,1.1-.7,1.97-.93,2.63-.23.66-.39,1.14-.47,1.45-.08.31-.12.52-.12.63v.08l.08-.08.08-.08c2.17-1.57,4.28-3.34,6.32-5.33,2.05-1.99,3.85-3.93,5.44-5.84,1.58-1.91,2.85-3.66,3.81-5.25.95-1.59,1.44-2.75,1.44-3.49,0-.63-.33-1.15-1.01-1.57-.67-.42-1.55-.77-2.64-1.06-1.09-.29-2.3-.49-3.65-.63-1.35-.13-2.67-.2-3.96-.2h0Z"/>
    </g>
  </g>
</svg>