<?xml version="1.0" encoding="UTF-8"?>
<svg id="Calque_1" xmlns="http://www.w3.org/2000/svg" xmlns:xlink="http://www.w3.org/1999/xlink" version="1.1" viewBox="0 0 70 86">
  <!-- Generator: Adobe Illustrator 29.1.0, SVG Export Plug-In . SVG Version: 2.1.0 Build 142)  -->
  <defs>
    <style>
      .st0 {
        fill: none;
      }

      .st1 {
        fill: #f2efdf;
      }

      .st2 {
        clip-path: url(#clippath);
      }
    </style>
    <clipPath id="clippath">
      <rect class="st0" y="0" width="70" height="86"/>
    </clipPath>
  </defs>
  <g class="st2">
    <g>
      <path class="st1" d="M5.4,22.2c0-1.5,1.2-3.5,3.5-6,2.2-2.5,5.4-5.3,9.6-8.6,3.3-2.5,6.4-4.4,9.3-5.7C30.7.6,33,0,34.9,0s1.7.4,2.3,1.1,1,1.5,1,2.4c0,0,.3.1.5.1s.5,0,.7.2l1.1.9c.3.3.7.7,1.1,1.2.4.5.8.9,1,1.3h0c.2.4.3.8.4,1s.1.5.1.8,0,.3,0,.6c0,.2,0,.5-.1.9h0c0,0-.2.8-.2.8,0,.3-.3.9-.5,1.8-.3.9-.5,1.9-.9,3.1-.3,1.1-.7,2.3-1,3.3s-.7,1.9-.8,2.5l-.9,2.9,2.6-.2c.2,0,.4,0,.7,0,.3,0,.6,0,1,0,.3,0,.7,0,1,0h.6c.9,0,1.5.2,1.9.6.3.4.5,1,.5,1.7s-.2.6-.6.9c-.4.3-.9.6-1.5.9-.6.3-1.3.5-2.1.8s-1.5.4-2.2.5l-1,.2c-.7.1-1.3.2-1.7.4-.4.1-.8.4-1,.7-.3.3-.5.8-.8,1.4-.2.6-.5,1.4-.9,2.5h0c-.2.5-.5,1.3-.8,2.2-.3.9-.7,1.8-1,2.7-.4.9-.7,1.9-1.1,2.9-.4,1-.7,1.8-.9,2.6l-1.1,3.1c-1.2,3-2.3,5.8-3.5,8.3-1.1,2.5-2.2,4.7-3.4,6.5s-2.4,3.2-3.8,4.2c-1.4,1-2.8,1.5-4.4,1.5-2.3,0-4.4-.7-6.3-2-1.9-1.3-3.4-2.9-4.7-4.8-1.3-1.9-2.3-3.8-3-5.8C.3,54.4,0,52.7,0,51.4,0,49.5.5,47.7,1.6,45.9c1.1-1.8,2.5-3.5,4.3-5.2s4-3.3,6.5-4.9,5.2-3,8.1-4.5c1.4-.7,2.9-1.4,4.4-2.1l3.7-9.8,4.6-12.1s0,0-.1,0c0,0,0,0-.1,0-1.9,1-4,2.3-6.3,3.9-2.3,1.6-4.5,3.3-6.5,5.2s-3.7,3.7-5.1,5.5c-1.4,1.8-2,3.4-2,4.8s0,.4,0,.5l.3,1.8v.2c0,.6-.3.9-1,.9s-1.2-.3-2.1-.8-1.6-1.2-2.4-2.1l-1.1-1.2c0-.1-.2-.3-.2-.5s0,0,0-.1c0,0,0,0,0-.1-.5,0-.8-.3-1.1-.7s-.3-1.3-.3-2.7h0ZM21.8,36.2l.3-.5c-.2.2-.5.3-.8.5-.3.2-.7.4-1.1.6-2,1.2-3.8,2.4-5.5,3.7-1.6,1.3-3,2.6-4.2,3.9-1.2,1.3-2.1,2.6-2.7,3.9-.7,1.2-1,2.4-1,3.5s.1,1.3.4,2.2c.3.9.5,1.6.8,2.3h0c.3.5.6,1,1,1.4s.7.6.9.6c.7-.9,1.4-1.8,2.1-2.7.6-.9,1.3-1.8,1.9-2.9.6-1,1.3-2.3,2-3.6.7-1.4,1.5-3.1,2.5-5,.7-1.4,1.3-2.9,2-4.4.6-1.5,1.1-2.7,1.4-3.4h0c0,0,0,0,0,0Z"/>
      <path class="st1" d="M38.5,24.9c2-.4,3.8-.8,5.8-1,6.3-.8,18.6-.9,23.8,3.2,2.3,1.8,1.9,5.9,1.9,7,0,1.2-.3,2.5-.6,3.8-.3,1.2-.7,2.5-1.3,3.8h0c-.9,2.1-2.2,4.2-4,6.2-1.8,2-3.8,3.8-6,5.5-2.2,1.7-4.4,3.2-6.8,4.4-2.3,1.3-4.5,2.3-6.4,3h0c-1.4.7-2.2,1.1-2.2,1.2l-2.3,7.5h0c0,0-.2,1.6-.2,1.6-.2.9-.4,1.9-.7,3.1-.2,1.2-.4,2.4-.6,3.6-.2,1.2-.3,2.3-.4,3.3,0,1-.2,1.7-.2,2.2v1.7c0,.5-.3.7-.6.7h-1.2c-.5-.1-1-.2-1.3-.2s-.6-.2-.7-.4c-.2.2-.3.2-.5.2-.4,0-.9-.2-1.5-.6-.6-.4-1.2-.8-1.8-1.4s-1.1-1.3-1.6-2c-.5-.8-.8-1.5-.9-2.3-.2-1.2-.3-2.6-.2-4.3,0-1.9.4-4.4,1-7.3.6-2.9,1.4-6.1,2.4-9.6,1-3.4,2.1-7,3.3-10.6,1.2-3.7,2.5-7.2,3.8-10.7.8-2.2,1.5-3.8,1.9-4.9.4-1.1.9-1.9,1.3-2.4l-3-4.5h0ZM51.6,28.3c-1,0-2.1,0-3.2.1-1.1,0-2.3.2-3.5.4l.2.4s0,0,.2,0,.5.1.8.4c.4.2.8.5,1.2.8l.8.9c.6.7,1.2,1.4,1.7,2.3.5.8.7,1.7.7,2.6s-.7,3.4-1.9,7c-.6,1.6-1.1,3-1.5,4.1-.4,1.1-.7,2-.9,2.6s-.4,1.1-.5,1.5-.1.5-.1.6h0c0,0,0,0,0,0h0c2.2-1.7,4.3-3.4,6.3-5.4,2-2,3.8-3.9,5.4-5.8,1.6-1.9,2.8-3.7,3.8-5.2,1-1.6,1.4-2.8,1.4-3.5s-.3-1.1-1-1.6c-.7-.4-1.5-.8-2.6-1.1-1.1-.3-2.3-.5-3.7-.6-1.3-.1-2.7-.2-4-.2h0Z"/>
    </g>
  </g>
</svg>